<svg width="99" height="19" viewBox="0 0 99 19" fill="none" xmlns="http://www.w3.org/2000/svg">
<g clip-path="url(#clip0_5047_6975)">
<path d="M23.5015 13.8877H25.7545V4.35596H23.5015V8.02754H19.4278V4.35596H17.1748V13.8877H19.4278V10.3868V10.2047L23.5015 10.2161V10.3868V13.8877Z" fill="#191919"/>
<path d="M6.28493 10.0796L2.02544 4.11328L0 5.16393V13.8953H2.20371V8.1452L6.66423 14.2063H6.67181L8.5114 13.2391V4.36362H6.28493V10.0796Z" fill="#191919"/>
<path d="M36.6207 8.1452L41.0812 14.2063H41.0926L42.9284 13.2391V4.36362H40.7019V10.0796L36.4462 4.11328L34.417 5.16393V13.8953H36.6207V8.1452Z" fill="#191919"/>
<path d="M55.4911 0.585815V7.00729L61.1806 0.585815H66.3466L59.5458 8.21725L66.5628 17.6503H61.4423L56.9173 11.2023L55.4949 12.7916V17.6503H51.4668V0.585815H55.4949H55.4911Z" fill="#191919"/>
<path d="M68.4476 15.0673C67.0973 13.5046 66.3159 11.4412 66.3159 9.11991C66.3159 6.34726 67.4045 3.97666 69.2555 2.34189C70.8675 0.942291 73.0257 0.138184 75.4645 0.138184C77.0538 0.138184 78.4496 0.422656 79.5875 0.942291C80.5585 1.39365 81.6015 2.175 82.4777 3.26358L79.5382 5.729C78.9237 5.11454 78.3055 4.66318 77.5696 4.37871C76.9552 4.14355 76.2648 3.99941 75.5556 3.99941C74.0611 3.99941 73.0181 4.42423 72.1191 5.16006C71.004 6.08554 70.3402 7.45859 70.3402 9.11612C70.3402 10.5385 70.8144 11.8167 71.6678 12.7194C72.5933 13.7132 73.9891 14.2366 75.5556 14.2366C76.3597 14.2366 77.1183 14.0697 77.7365 13.7852C78.5179 13.4553 79.1816 12.9318 79.7733 12.196L82.7356 14.4225C81.9543 15.5604 81.0781 16.4365 79.9857 17.0548C78.7758 17.7413 77.3079 18.0978 75.4607 18.0978C72.5705 18.0978 70.1051 16.9372 68.4438 15.0635L68.4476 15.0673Z" fill="#191919"/>
<path d="M84.6357 0.585815H92.5516C93.4278 0.585815 94.5657 0.729948 95.3015 1.03718C96.2725 1.43923 97.0539 2.03093 97.6721 2.78952C98.5256 3.8781 98.9997 5.25495 98.9997 6.74558C98.9997 7.73933 98.7873 8.68757 98.408 9.54099C97.8618 10.7244 96.9629 11.7219 95.7529 12.2909C94.854 12.7157 93.5947 12.9547 92.5516 12.9547H88.6639V17.6465H84.6357V0.585815ZM92.2217 9.18824C92.9309 9.18824 93.4544 9.02135 93.7616 8.88101C94.6605 8.4562 94.8767 7.60279 94.8767 6.74937C94.8767 5.82389 94.5695 5.0653 93.572 4.64049C93.242 4.50015 92.6465 4.40532 92.0093 4.40532H88.6677V9.19204H92.2217V9.18824Z" fill="#191919"/>
</g>
<defs>
<clipPath id="clip0_5047_6975">
<rect width="99" height="17.9634" fill="white" transform="translate(0 0.134399)"/>
</clipPath>
</defs>
</svg>
